<svg width="100" height="100" viewBox="0 0 100 100" version="1.1" xmlns="http://www.w3.org/2000/svg" xmlns:xlink="http://www.w3.org/1999/xlink">
<title>reset</title>
<desc>Created using Figma</desc>
<g id="Canvas" transform="translate(-6270 -18706)">
<g id="reset">
<g id="Group">
<g id="Group">
<g id="Group">
<g id="Vector">
<use xlink:href="#path0_fill" transform="translate(6327.01 18783)" fill="#27AE60"/>
</g>
<g id="Vector">
<use xlink:href="#path1_fill" transform="translate(6285.51 18739.5)" fill="#27AE60"/>
</g>
<g id="Vector">
<use xlink:href="#path2_fill" transform="translate(6349.16 18756)" fill="#27AE60"/>
</g>
<g id="Vector">
<use xlink:href="#path3_fill" transform="translate(6341.49 18772)" fill="#27AE60"/>
</g>
<g id="Vector">
<use xlink:href="#path4_fill" transform="translate(6308.25 18784)" fill="#27AE60"/>
</g>
<g id="Vector">
<use xlink:href="#path5_fill" transform="translate(6314.9 18720.1)" fill="#27AE60"/>
</g>
<g id="Vector">
<use xlink:href="#path6_fill" transform="translate(6332.34 18723.3)" fill="#27AE60"/>
</g>
<g id="Vector">
<use xlink:href="#path7_fill" transform="translate(6291.76 18774.3)" fill="#27AE60"/>
</g>
<g id="Vector">
<use xlink:href="#path8_fill" transform="translate(6284.23 18758.8)" fill="#27AE60"/>
</g>
<g id="Vector">
<use xlink:href="#path9_fill" transform="translate(6296.48 18724.9)" fill="#27AE60"/>
</g>
<g id="Vector">
<use xlink:href="#path10_fill" transform="translate(6298.13 18734.1)" fill="#27AE60"/>
</g>
<g id="Vector">
<use xlink:href="#path11_fill" transform="translate(6270 18706)" fill="#27AE60"/>
</g>
</g>
</g>
</g>
</g>
</g>
<defs>
<path id="path0_fill" d="M 1.47173 7.9172C 3.69046 7.38059 5.85235 6.63132 7.92734 5.68014L 5.3276 1.8593e-06C 3.61488 0.783443 1.83068 1.40071 -4.7679e-08 1.84339L 1.47173 7.9172Z"/>
<path id="path1_fill" d="M 2.5435 7.15116e-07C 1.49516 2.03027 0.643296 4.15622 5.60228e-07 6.34876L 5.9994 8.10467C 6.52884 6.29662 7.23209 4.54404 8.0992 2.87131L 2.5435 7.15116e-07Z"/>
<path id="path2_fill" d="M 6.78058 -1.28721e-06L 0.5312 -1.28721e-06C 0.532176 1.88713 0.354264 3.77017 2.14555e-06 5.62391L 6.14002 6.79868C 6.56654 4.55771 6.78117 2.28139 6.78058 -1.28721e-06Z"/>
<path id="path3_fill" d="M 2.38395e-06 4.43976L 4.52142 8.75142C 6.09529 7.0992 7.51078 5.30327 8.74913 3.38684L 3.49341 -2.28837e-06C 2.47124 1.5866 1.30163 3.07323 2.38395e-06 4.43976Z"/>
<path id="path4_fill" d="M 6.64621 7.51416L 7.52738 1.32474C 5.66037 1.05917 3.82286 0.615502 2.04042 -2.71744e-06L 8.58222e-07 5.90822C 2.15994 6.65124 4.38531 7.18903 6.64621 7.51416Z"/>
<path id="path5_fill" d="M 6.52747 6.29444L 6.8212 0.0394123C 4.54271 -0.06545 2.25934 0.0390215 -1.31117e-06 0.351851L 0.878037 6.56002C 2.74875 6.29561 4.64016 6.20676 6.52747 6.29444Z"/>
<path id="path6_fill" d="M 8.51478 3.42121C 6.65598 2.09588 4.67551 0.950401 2.59974 5.36337e-07L 2.24091e-06 5.68014C 1.71604 6.4669 3.35338 7.41457 4.89014 8.51084L 8.51478 3.42121Z"/>
<path id="path7_fill" d="M 4.71516 8.80453L 8.8085 4.0867C 7.38286 2.8512 6.0783 1.48272 4.91201 -2.09767e-06L -4.7679e-07 3.85862C 1.41041 5.65378 2.98935 7.3101 4.71516 8.80453Z"/>
<path id="path8_fill" d="M -4.5295e-07 0.603007C 0.215408 2.87346 0.645444 5.11853 1.28425 7.30795L 7.28365 5.55516C 6.7548 3.74106 6.39819 1.88108 6.21813 -2.47907e-06L -4.5295e-07 0.603007Z"/>
<path id="path9_fill" d="M 8.68976 5.41145L 5.56507 3.09884e-07C 3.5889 1.14411 1.72561 2.47257 2.38395e-07 3.96798L 4.09334 8.68581C 5.51703 7.44972 7.05633 6.35325 8.68976 5.41145Z"/>
<path id="path10_fill" d="M 43.7457 21.8707C 43.7457 9.79184 33.9529 -1.28721e-06 21.8728 -1.28721e-06C 9.79278 -1.28721e-06 -5.95987e-07 9.79184 -5.95987e-07 21.8707C -5.95987e-07 33.9496 9.79278 43.7415 21.8728 43.7415C 33.9472 43.7278 43.7318 33.944 43.7457 21.8707ZM 37.1838 24.9951C 35.458 33.4486 27.2055 38.9026 18.7513 37.1771C 10.297 35.4515 4.84249 27.1998 6.5681 18.7463C 8.2939 10.2929 16.5464 4.8389 25.0006 6.56435C 31.1364 7.81664 35.9314 12.6112 37.1838 18.7463L 21.8728 18.7463L 21.8728 24.9951L 37.1838 24.9951Z"/>
<path id="path11_fill" d="M 99.9999 12.4998L 78.1271 12.4998L 78.1271 34.3705L 84.3764 34.3705L 84.3764 23.029C 90.4626 30.6972 93.7671 40.203 93.7505 49.9925C 93.7607 74.1606 74.1749 93.7609 50.0045 93.7711C 25.834 93.7812 6.23186 74.1975 6.22171 50.0294C 6.21155 25.8613 25.7973 6.26099 49.9676 6.25084C 57.1872 6.24771 64.2954 8.03076 70.6589 11.4408L 73.6211 5.93879C 49.2846 -7.103 18.9824 2.05146 5.93931 26.3858C -7.10373 50.7201 2.05181 81.0195 26.3885 94.0612C 50.7251 107.103 81.0274 97.9484 94.0704 73.6141C 97.9642 66.3495 100.001 58.2348 99.9999 49.9925C 100.023 38.6184 96.1239 27.584 88.9604 18.7486L 99.9999 18.7486L 99.9999 12.4998Z"/>
</defs>
</svg>
